HIERARCHY
ROOT hip
{
	OFFSET 0.000000 0.000000 0.000000 
	CHANNELS 6 Xposition Yposition Zposition Zrotation Xrotation Yrotation
	JOINT abdomen
	{
		OFFSET 0.000000 3.402643 0.000000 
		CHANNELS 3 Zrotation Xrotation Yrotation
		JOINT chest
		{
			OFFSET 0.000000 8.438565 -0.680529 
			CHANNELS 3 Zrotation Xrotation Yrotation
			JOINT neck
			{
				OFFSET 0.000000 10.207942 -0.272212 
				CHANNELS 3 Zrotation Xrotation Yrotation
				JOINT head
				{
					OFFSET 0.000000 3.130431 0.000000 
					CHANNELS 3 Zrotation Xrotation Yrotation
					End Site
					{
						OFFSET 0.000000 3.130435 0.000000 
					}
				}
			}
			JOINT lCollar
			{
				OFFSET 3.470700 6.669187 -0.816635 
				CHANNELS 3 Zrotation Xrotation Yrotation
				JOINT lShldr
				{
					OFFSET 3.198488 0.000000 0.000000 
					CHANNELS 3 Zrotation Xrotation Yrotation
					JOINT lForeArm
					{
						OFFSET 10.139888 0.000000 0.000000 
						CHANNELS 3 Zrotation Xrotation Yrotation
						JOINT lHand
						{
							OFFSET 8.370511 0.000000 0.000000 
							CHANNELS 3 Zrotation Xrotation Yrotation
							End Site
							{
								OFFSET 4.083176 0.000000 0.000000 
							}
						}
					}
				}
			}
			JOINT rCollar
			{
				OFFSET -3.470700 6.669187 -0.816635 
				CHANNELS 3 Zrotation Xrotation Yrotation
				JOINT rShldr
				{
					OFFSET -3.198488 0.000000 0.000000 
					CHANNELS 3 Zrotation Xrotation Yrotation
					JOINT rForeArm
					{
						OFFSET -10.139888 0.000000 0.000000 
						CHANNELS 3 Zrotation Xrotation Yrotation
						JOINT rHand
						{
							OFFSET -8.370511 0.000000 0.000000 
							CHANNELS 3 Zrotation Xrotation Yrotation
							End Site
							{
								OFFSET -4.083176 0.000000 0.000000 
							}
						}
					}
				}
			}
		}
	}
	JOINT lThigh
	{
		OFFSET 5.308129 -1.633274 1.361059 
		CHANNELS 3 Zrotation Xrotation Yrotation
		JOINT lShin
		{
			OFFSET -2.041588 -20.007561 0.000000 
			CHANNELS 3 Zrotation Xrotation Yrotation
			JOINT lFoot
			{
				OFFSET 0.000000 -19.190928 -1.224953 
				CHANNELS 3 Zrotation Xrotation Yrotation
				End Site
				{
					OFFSET 0.000000 -2.449906 4.627600 
				}
			}
		}
	}
	JOINT rThigh
	{
		OFFSET -5.308129 -1.633274 1.361059 
		CHANNELS 3 Zrotation Xrotation Yrotation
		JOINT rShin
		{
			OFFSET 2.041588 -20.007561 0.000000 
			CHANNELS 3 Zrotation Xrotation Yrotation
			JOINT rFoot
			{
				OFFSET 0.000000 -19.190928 -1.224953 
				CHANNELS 3 Zrotation Xrotation Yrotation
				End Site
				{
					OFFSET 0.000000 -2.449906 4.627600 
				}
			}
		}
	}
}
MOTION
Frames: 11
Frame Time: 0.033333
3.763056 48.738926 -1.233670 1.641258 1.600891 -1.676453 -1.505123 2.303897 -1.931924 -2.897754 -4.018312 -2.771593 0.810547 -0.029296 -0.155836 0.899629 -2.948856 -0.207621 -6.893586 -0.700131 -4.082444 -74.689758 17.627457 15.881151 -9.719008 2.777993 -5.856137 11.259559 -10.183329 -6.232203 5.174200 9.980511 -0.888986 69.838531 1.906572 17.764069 0.563004 18.813950 24.489311 -1.333095 -2.625902 4.718543 0.227253 -6.801350 -13.186261 -4.046277 10.803871 -0.288734 0.178985 -7.598961 19.013268 -3.253406 -14.174769 7.338096 -1.700615 12.607928 0.065233 4.493738 6.252966 -9.069050 
3.651536 48.644054 -0.519732 1.641258 1.591121 -1.676444 -1.543507 1.513123 -1.980716 -2.969399 -4.798270 -2.826752 0.810547 -0.029296 -0.155836 0.899606 -2.919561 -0.208082 -6.950160 -0.696859 -3.984971 -75.251434 18.719923 20.691376 -12.426902 2.238544 -8.931827 14.034835 -3.325286 -3.149422 4.714126 10.017620 -0.879797 68.053398 5.935002 24.505146 -2.481596 14.055089 34.455509 -0.008789 -5.782420 4.884387 0.294897 -6.032072 -13.201504 -4.144526 11.416224 -0.522417 0.357254 -8.993224 19.197517 -2.333133 -18.169550 4.389306 -4.107241 19.312853 1.298320 5.399829 10.989616 -5.615057 
3.536829 48.549721 0.218135 1.631480 1.581371 -1.675894 -1.611356 0.351426 -2.031406 -3.090873 -5.587610 -2.879366 0.810547 -0.029296 -0.155836 0.899567 -2.870740 -0.208849 -7.034889 -0.686814 -3.858202 -75.981293 19.776789 26.212870 -15.627626 1.794911 -12.375749 16.468092 4.420052 0.355520 4.151173 10.079980 -0.949903 65.278679 9.881227 32.153831 -4.125815 8.484676 45.466270 1.455120 -9.087822 5.207683 0.334020 -5.866899 -13.426082 -4.315573 12.758147 -0.376057 0.541159 -10.517577 19.359009 -1.808786 -21.778151 2.258422 -5.354235 24.959784 1.872714 4.848303 15.020141 -2.198797 
3.418496 48.453133 0.980120 1.621689 1.561867 -1.665038 -1.670141 -0.927343 -2.097635 -3.233098 -6.405887 -2.939771 0.810547 -0.029296 -0.155836 0.899529 -2.821919 -0.209464 -7.120380 -0.689293 -3.721787 -77.004913 20.564672 32.096581 -19.117420 1.728296 -15.857008 18.024511 12.514188 4.177107 3.531562 10.144127 -1.029994 61.286671 13.095104 40.468399 -3.725443 2.724571 57.064064 3.030366 -12.518933 5.611773 0.394673 -5.362224 -13.558798 -4.475042 14.810351 -0.031915 0.756055 -12.988906 19.220074 -1.464517 -24.934719 0.466550 -6.121529 29.386988 2.444014 3.789348 15.613128 0.344811 
3.296104 48.351540 1.766407 1.621689 1.552099 -1.665031 -1.729633 -2.059611 -2.162084 -3.347054 -7.243612 -3.010954 0.810547 -0.029296 -0.155836 0.899491 -2.773097 -0.210384 -7.205940 -0.689770 -3.595105 -78.308777 20.932560 37.941288 -22.568104 2.168460 -19.059965 18.336658 20.427975 8.217047 2.953917 10.211072 -1.070421 56.182758 15.062202 49.045269 -1.102520 -2.308477 68.877937 4.663352 -16.020386 5.969932 0.461266 -4.772367 -13.610410 -4.603709 15.616200 -0.098806 1.032747 -14.420533 19.476767 -1.563606 -27.534752 -1.592050 -6.713421 32.422668 2.670505 2.839362 10.613386 2.455880 
3.169214 48.242165 2.577189 1.611905 1.542354 -1.654458 -1.769694 -2.801398 -2.215426 -3.423117 -8.130192 -3.092095 0.810547 -0.029296 -0.155836 0.899469 -2.743804 -0.210845 -7.262686 -0.686240 -3.507440 -79.818855 20.828678 43.340633 -25.668837 3.141797 -21.735462 17.285061 27.640413 12.361722 2.480408 10.240493 -1.041157 50.379833 15.564390 57.267559 3.343985 -5.771972 80.375374 6.259373 -19.563589 6.188750 0.567968 -4.061463 -13.590798 -4.706070 16.091270 -0.227512 1.295468 -15.547541 19.572290 -2.004794 -29.332035 -3.621674 -6.822945 33.537983 2.656483 2.407881 3.230386 3.155639 
3.037393 48.122234 3.412652 1.611905 1.542354 -1.654458 -1.760051 -2.889262 -2.237181 -3.421609 -9.056357 -3.186267 0.810547 -0.029296 -0.155836 0.899462 -2.734038 -0.210845 -7.272275 -0.689340 -3.487991 -81.444710 20.335749 47.896099 -28.087700 4.581222 -23.723419 15.062572 33.750591 16.250139 2.186214 10.212526 -0.872660 44.373165 14.742903 64.542442 8.783319 -7.217080 90.699448 7.704722 -23.114471 6.128476 0.714346 -3.210637 -13.433989 -4.805933 16.838655 -0.130812 1.321903 -17.100910 19.234911 -2.619557 -30.143980 -5.510572 -6.443223 32.527256 2.461380 2.269395 -2.553384 2.682100 
2.900203 47.988998 4.272982 1.611920 1.552115 -1.664491 -1.690567 -2.079175 -2.229322 -3.312422 -10.032379 -3.283298 0.810547 -0.029296 -0.155836 0.899484 -2.763331 -0.210538 -7.224473 -0.682485 -3.565877 -83.108131 19.615093 51.249638 -29.563564 6.328907 -24.915583 12.163589 38.458641 19.286221 2.141424 10.118147 -0.515512 38.566803 13.065493 70.393044 14.278567 -6.848932 98.790016 8.851503 -26.653591 5.655790 0.889636 -2.189306 -13.105433 -4.843179 17.090876 -0.172224 1.383604 -18.310568 18.908419 -3.389432 -29.516689 -7.042128 -5.174753 28.412910 2.296907 2.522463 -4.256956 -0.629460 
2.757210 47.839668 5.158370 1.631473 1.571612 -1.665852 -1.542971 -0.097619 -2.180364 -3.064775 -11.058770 -3.391659 0.810547 -0.029296 -0.155836 0.899536 -2.831683 -0.209310 -7.091729 -0.685167 -3.770485 -84.768021 18.831348 53.088257 -29.828117 8.291519 -25.257162 9.397246 41.659447 20.525457 2.429443 9.934551 0.069333 33.197189 11.113880 74.595612 19.190681 -5.350955 103.653801 9.496288 -30.117937 4.587060 0.674093 -1.062321 -12.597528 -4.686420 17.357405 -0.149099 1.709207 -19.605684 18.513809 -4.094780 -28.627464 -8.111938 -3.954361 23.977942 1.443391 2.850181 -3.742650 -4.862245 
2.607977 47.671482 6.069004 1.641274 1.610645 -1.677004 -1.310755 3.290160 -2.102716 -2.647284 -12.155368 -3.507019 0.810547 -0.029296 -0.155836 0.899644 -2.958619 -0.207312 -6.874580 -0.696848 -4.121388 -86.454681 18.101725 53.099064 -28.719841 10.468030 -24.643101 7.501772 43.106209 19.038698 3.133590 9.671125 0.939546 28.283031 9.457888 77.052345 23.334200 -3.719481 104.517044 9.409381 -33.487705 2.717016 0.537260 -0.859288 -12.446334 -5.134349 17.638729 0.143160 2.333051 -20.050251 18.285181 -4.749132 -25.211763 -8.687981 -1.877958 14.772943 0.139078 2.344892 0.881007 -10.250398 
2.452785 47.482769 6.998443 1.670623 1.659437 -1.698498 -0.986753 8.240982 -2.026683 -2.046971 -13.282832 -3.595838 0.810547 -0.029296 -0.155836 0.899792 -3.144143 -0.204550 -6.543667 -0.711181 -4.628875 -88.240242 17.370230 51.124493 -26.256273 12.975727 -22.942476 6.561016 42.473988 14.479108 4.279406 9.341049 2.111059 23.857599 8.430206 77.726021 26.881632 -2.921907 101.039917 8.374596 -36.663418 -0.085082 0.323517 -0.095926 -11.500667 -5.055881 17.715847 -0.044470 2.609811 -20.863083 17.575548 -5.253185 -20.216101 -8.855116 -0.087913 2.866252 -0.610078 1.981823 9.276127 -16.730873 
